<svg width="45" height="43" viewBox="0 0 45 43" fill="none" xmlns="http://www.w3.org/2000/svg">
<g opacity="0.25">
<g clip-path="url(#clip0)">
<path d="M39.5 23H267.5" stroke="#001689" stroke-linecap="round" stroke-linejoin="round"/>
</g>
<path d="M43.5952 20.0484C40.6527 41.7081 16.0898 46.1671 6.64267 37.2487C-2.80448 28.3302 0.344568 4.12247 17.9795 1.57316C35.6144 -0.976154 43.1009 28.0362 38.1336 37.2487" stroke="#001689" stroke-width="2"/>
<path d="M20.816 16.304C21.3493 16.304 21.8373 16.384 22.28 16.544C22.7227 16.6987 23.1013 16.92 23.416 17.208C23.7307 17.496 23.976 17.8427 24.152 18.248C24.328 18.6533 24.416 19.104 24.416 19.6C24.416 20.0267 24.352 20.4213 24.224 20.784C24.1013 21.1467 23.9333 21.4933 23.72 21.824C23.512 22.1547 23.2667 22.4747 22.984 22.784C22.7013 23.0933 22.4053 23.408 22.096 23.728L19.488 26.392C19.744 26.3173 19.9947 26.2613 20.24 26.224C20.4853 26.1813 20.72 26.16 20.944 26.16H23.912C24.1253 26.16 24.2933 26.2213 24.416 26.344C24.544 26.4613 24.608 26.6187 24.608 26.816V28H16.672V27.344C16.672 27.2107 16.6987 27.072 16.752 26.928C16.8107 26.784 16.9013 26.6507 17.024 26.528L20.536 23.008C20.8293 22.7093 21.0907 22.424 21.32 22.152C21.5547 21.88 21.7493 21.6107 21.904 21.344C22.064 21.0773 22.184 20.808 22.264 20.536C22.3493 20.2587 22.392 19.968 22.392 19.664C22.392 19.3867 22.352 19.144 22.272 18.936C22.192 18.7227 22.0773 18.544 21.928 18.4C21.7787 18.256 21.6 18.1493 21.392 18.08C21.1893 18.0053 20.96 17.968 20.704 17.968C20.2293 17.968 19.8373 18.088 19.528 18.328C19.224 18.568 19.0107 18.8907 18.888 19.296C18.8293 19.4987 18.7413 19.6453 18.624 19.736C18.5067 19.8213 18.3573 19.864 18.176 19.864C18.096 19.864 18.008 19.856 17.912 19.84L16.872 19.656C16.952 19.1013 17.1067 18.616 17.336 18.2C17.5653 17.7787 17.8507 17.4293 18.192 17.152C18.5387 16.8693 18.9333 16.6587 19.376 16.52C19.824 16.376 20.304 16.304 20.816 16.304Z" fill="#001689"/>
</g>
<defs>
<clipPath id="clip0">
<rect width="43" height="41" fill="white" transform="translate(1 1)"/>
</clipPath>
</defs>
</svg>
