<svg width="45" height="43" viewBox="0 0 45 43" fill="none" xmlns="http://www.w3.org/2000/svg">
<g opacity="0.25">
<path d="M43.5952 20.0484C40.6527 41.7081 16.0898 46.1671 6.64267 37.2487C-2.80448 28.3302 0.344568 4.12247 17.9795 1.57316C35.6144 -0.976154 43.1009 28.0362 38.1336 37.2487" stroke="#001689" stroke-width="2"/>
<path d="M23.536 23.64H24.992V24.784C24.992 24.8907 24.9573 24.984 24.888 25.064C24.8187 25.1387 24.7173 25.176 24.584 25.176H23.536V28H21.808V25.176H16.928C16.7947 25.176 16.6773 25.136 16.576 25.056C16.4747 24.9707 16.4107 24.8667 16.384 24.744L16.184 23.744L21.664 16.424H23.536V23.64ZM21.808 19.856C21.808 19.6853 21.8133 19.5013 21.824 19.304C21.8347 19.1067 21.8533 18.9013 21.88 18.688L18.288 23.64H21.808V19.856Z" fill="#001689"/>
</g>
</svg>
