<svg width="45" height="43" viewBox="0 0 45 43" fill="none" xmlns="http://www.w3.org/2000/svg">
<path d="M39.5 28C36.5 38 30 38.5 20.5 42C10.835 42 1 34.8218 1 23.5C1 12.1782 10.835 1 20.5 1C30.165 1 39.5 16.6782 39.5 28Z" fill="#001689"/>
<path d="M43.5952 20.0484C40.6527 41.7081 16.0898 46.1671 6.64267 37.2487C-2.80448 28.3302 0.344568 4.12247 17.9795 1.57316C35.6144 -0.976154 43.1009 28.0362 38.1336 37.2487" stroke="#001689" stroke-width="2"/>
<path d="M21 16.304C21.5333 16.304 22.0133 16.3813 22.44 16.536C22.872 16.6853 23.24 16.896 23.544 17.168C23.848 17.4347 24.08 17.7493 24.24 18.112C24.4053 18.4747 24.488 18.8667 24.488 19.288C24.488 19.656 24.4453 19.9813 24.36 20.264C24.28 20.5413 24.16 20.784 24 20.992C23.8453 21.2 23.6533 21.376 23.424 21.52C23.2 21.664 22.944 21.784 22.656 21.88C23.3493 22.0987 23.8667 22.432 24.208 22.88C24.5493 23.328 24.72 23.8907 24.72 24.568C24.72 25.144 24.6133 25.6533 24.4 26.096C24.1867 26.5387 23.8987 26.912 23.536 27.216C23.1733 27.5147 22.752 27.7413 22.272 27.896C21.7973 28.0507 21.2933 28.128 20.76 28.128C20.1787 28.128 19.672 28.0613 19.24 27.928C18.808 27.7947 18.432 27.5973 18.112 27.336C17.792 27.0747 17.52 26.7547 17.296 26.376C17.072 25.9973 16.88 25.56 16.72 25.064L17.592 24.704C17.7413 24.64 17.8933 24.608 18.048 24.608C18.1867 24.608 18.3093 24.6373 18.416 24.696C18.528 24.7547 18.6133 24.84 18.672 24.952C18.768 25.1387 18.872 25.3227 18.984 25.504C19.1013 25.6853 19.24 25.848 19.4 25.992C19.56 26.1307 19.7467 26.2453 19.96 26.336C20.1787 26.4213 20.4373 26.464 20.736 26.464C21.072 26.464 21.3653 26.4107 21.616 26.304C21.8667 26.192 22.0747 26.048 22.24 25.872C22.4107 25.696 22.536 25.5013 22.616 25.288C22.7013 25.0693 22.744 24.8507 22.744 24.632C22.744 24.3547 22.7147 24.104 22.656 23.88C22.5973 23.6507 22.4747 23.456 22.288 23.296C22.1013 23.136 21.832 23.0107 21.48 22.92C21.1333 22.8293 20.6667 22.784 20.08 22.784V21.376C20.5653 21.3707 20.968 21.3253 21.288 21.24C21.608 21.1547 21.8613 21.0373 22.048 20.888C22.24 20.7333 22.3733 20.5493 22.448 20.336C22.5227 20.1227 22.56 19.888 22.56 19.632C22.56 19.0827 22.4107 18.6693 22.112 18.392C21.8133 18.1093 21.4053 17.968 20.888 17.968C20.4187 17.968 20.0293 18.0933 19.72 18.344C19.4107 18.5893 19.1947 18.9067 19.072 19.296C19.008 19.4987 18.92 19.6453 18.808 19.736C18.696 19.8213 18.5493 19.864 18.368 19.864C18.2827 19.864 18.192 19.856 18.096 19.84L17.056 19.656C17.136 19.1013 17.2907 18.616 17.52 18.2C17.7493 17.7787 18.0347 17.4293 18.376 17.152C18.7227 16.8693 19.1173 16.6587 19.56 16.52C20.008 16.376 20.488 16.304 21 16.304Z" fill="white"/>
</svg>
