<svg width="45" height="43" viewBox="0 0 45 43" fill="none" xmlns="http://www.w3.org/2000/svg">
<path d="M43.5952 20.0484C40.6527 41.7081 16.0898 46.1671 6.64267 37.2487C-2.80448 28.3302 0.344568 4.12247 17.9795 1.57316C35.6144 -0.976154 43.1009 28.0362 38.1336 37.2487" stroke="#001689" stroke-width="2"/>
<path d="M18.152 26.52H20.496V19.776C20.496 19.5147 20.504 19.24 20.52 18.952L18.856 20.344C18.7867 20.4027 18.7147 20.4427 18.64 20.464C18.5707 20.4853 18.5013 20.496 18.432 20.496C18.3253 20.496 18.2267 20.4747 18.136 20.432C18.0507 20.384 17.9867 20.3307 17.944 20.272L17.32 19.416L20.848 16.416H22.472V26.52H24.552V28H18.152V26.52Z" fill="#001689"/>
</svg>
